<svg xmlns="http://www.w3.org/2000/svg" xmlns:xlink="http://www.w3.org/1999/xlink" version="1.1" width="1000" height="1000" viewBox="0 0 1000 1000" xml:space="preserve">
<desc>Created with Fabric.js 3.5.0</desc>
<defs>
</defs>
<rect x="0" y="0" width="100%" height="100%" fill="rgba(163,6,182,0)"/>
<g transform="matrix(0.0648 0 0 -0.0648 161.9623 364.5273)" id="238990">
<path style="stroke: none; stroke-width: 1; stroke-dasharray: none; stroke-linecap: butt; stroke-dashoffset: 0; stroke-linejoin: miter; stroke-miterlimit: 4; is-custom-font: none; font-file-url: none; fill: rgb(239,62,54,.5); fill-rule: nonzero; opacity: 1;" transform=" translate(-2499.4176, -7710.9994)" d="M 2295 11244 c -386 -44 -631 -115 -935 -269 c -763 -388 -1272 -1149 -1350 -2015 c -13 -150 -13 -1071 1 -1129 c 27 -120 113 -227 226 -283 c 64 -31 73 -33 178 -33 c 103 0 114 2 177 32 c 88 41 160 113 201 201 l 32 67 l 6 555 c 5 427 10 574 22 635 c 134 723 654 1254 1362 1392 c 129 25 433 25 570 -1 c 738 -137 1291 -736 1375 -1491 c 6 -57 10 -865 10 -2230 c 0 -1781 3 -2149 14 -2191 c 67 -253 348 -383 581 -269 c 106 52 181 139 216 255 c 19 64 19 97 16 2295 c -2 2040 -4 2239 -20 2333 c -74 453 -228 820 -488 1169 c -95 127 -347 379 -474 474 c -379 283 -813 454 -1274 499 c -95 9 -376 12 -446 4 z" stroke-linecap="round"/>
</g>
<g transform="matrix(0.0648 0 0 -0.0648 573.0543 364.5904)" id="460472">
<path style="stroke: none; stroke-width: 1; stroke-dasharray: none; stroke-linecap: butt; stroke-dashoffset: 0; stroke-linejoin: miter; stroke-miterlimit: 4; is-custom-font: none; font-file-url: none; fill: rgb(239,62,54,.5); fill-rule: nonzero; opacity: 1;" transform=" translate(-8838.1384, -7710.0269)" d="M 8530 11244 c -296 -29 -607 -117 -875 -249 c -319 -156 -619 -394 -835 -659 c -171 -211 -360 -546 -383 -679 c -47 -274 203 -526 474 -478 c 156 27 247 103 341 284 c 91 177 184 311 301 433 c 256 268 545 426 915 501 c 136 28 461 24 602 -6 c 342 -73 640 -237 875 -483 c 227 -236 370 -506 447 -843 l 22 -100 l 6 -2230 c 5 -2042 6 -2233 22 -2271 c 66 -166 170 -256 329 -285 c 173 -32 361 66 442 230 l 32 66 l 0 2270 c 0 2156 -1 2276 -18 2380 c -50 297 -129 539 -258 785 c -370 707 -1045 1188 -1844 1315 c -97 16 -495 28 -595 19 z" stroke-linecap="round"/>
</g>
<g transform="matrix(0.0648 0 0 -0.0648 905.5842 391.5854)" id="92924">
<path style="stroke: none; stroke-width: 1; stroke-dasharray: none; stroke-linecap: butt; stroke-dashoffset: 0; stroke-linejoin: miter; stroke-miterlimit: 4; is-custom-font: none; font-file-url: none; fill: rgb(239,62,54,.5); fill-rule: nonzero; opacity: 1;" transform=" translate(-13964.7685, -7293.4373)" d="M 13737 11235 c -547 -89 -986 -463 -1157 -985 c -74 -226 -71 -140 -68 -1795 l 3 -1480 l 27 -58 c 15 -31 51 -82 80 -113 c 202 -214 543 -156 671 114 l 32 67 l 5 1445 c 5 1340 7 1449 23 1505 c 88 299 322 484 612 485 c 96 0 175 -19 270 -64 c 131 -62 235 -169 297 -305 c 62 -135 59 55 55 -3086 c -3 -2747 -4 -2875 -22 -2995 c -10 -69 -19 -168 -19 -220 c -1 -87 2 -101 31 -162 c 88 -187 278 -282 473 -237 c 148 34 276 163 309 310 c 18 83 40 279 51 456 c 8 123 10 1053 8 3018 c -4 3150 2 2880 -69 3102 c -72 227 -184 409 -358 584 c -211 210 -445 339 -729 400 c -129 27 -399 35 -525 14 z" stroke-linecap="round"/>
</g>
<g transform="matrix(0.0648 0 0 -0.0648 297.5628 499.548)" id="118508">
<path style="stroke: none; stroke-width: 1; stroke-dasharray: none; stroke-linecap: butt; stroke-dashoffset: 0; stroke-linejoin: miter; stroke-miterlimit: 4; is-custom-font: none; font-file-url: none; fill: rgb(239,62,54,.5); fill-rule: nonzero; opacity: 1;" transform=" translate(-4590.2977, -5629.0592)" d="M 2400 9157 c -119 -34 -227 -125 -278 -234 l -27 -58 l -3 -2215 c -2 -1932 -1 -2232 13 -2349 c 83 -734 492 -1394 1120 -1807 c 623 -410 1424 -514 2140 -279 c 879 288 1531 1046 1685 1958 c 11 69 25 197 30 284 c 12 206 13 3018 0 3101 c -12 88 -59 183 -119 241 c -205 200 -543 139 -665 -118 l -31 -66 l -6 -1585 c -4 -1153 -9 -1604 -17 -1655 c -66 -389 -210 -684 -462 -949 c -612 -642 -1613 -687 -2282 -103 c -276 242 -467 573 -550 952 l -22 100 l -6 2230 l -5 2230 l -22 58 c -44 115 -132 206 -243 248 c -68 26 -189 34 -250 16 z" stroke-linecap="round"/>
</g>
<g transform="matrix(0.0648 0 0 -0.0648 703.0006 499.3763)" id="734246">
<path style="stroke: none; stroke-width: 1; stroke-dasharray: none; stroke-linecap: butt; stroke-dashoffset: 0; stroke-linejoin: miter; stroke-miterlimit: 4; is-custom-font: none; font-file-url: none; fill: rgb(239,62,54,.5); fill-rule: nonzero; opacity: 1;" transform=" translate(-10841.9075, -5631.7083)" d="M 8655 9156 c -120 -29 -222 -115 -278 -234 l -32 -67 l 0 -2250 c 0 -2115 1 -2257 18 -2365 c 43 -274 117 -511 236 -755 c 363 -740 1057 -1244 1891 -1372 c 141 -21 540 -24 665 -5 c 433 69 748 188 1075 407 c 512 343 884 870 1029 1455 c 67 271 84 462 79 855 c -4 299 -8 318 -77 419 c -89 129 -272 201 -422 166 c -130 -30 -255 -134 -300 -247 c -22 -55 -23 -76 -30 -398 c -7 -384 -20 -486 -85 -686 c -50 -156 -156 -361 -252 -489 c -95 -125 -264 -291 -385 -377 c -234 -165 -523 -270 -818 -295 c -294 -25 -593 33 -860 166 c -507 254 -850 736 -924 1303 c -13 98 -15 411 -15 2266 c 0 1763 -3 2161 -14 2202 c -59 223 -279 355 -501 301 z" stroke-linecap="round"/>
</g>
<g transform="matrix(0.0648 0 0 -0.0648 61.861 621.1752)" id="613982">
<path style="stroke: none; stroke-width: 1; stroke-dasharray: none; stroke-linecap: butt; stroke-dashoffset: 0; stroke-linejoin: miter; stroke-miterlimit: 4; is-custom-font: none; font-file-url: none; fill: rgb(239,62,54,.5); fill-rule: nonzero; opacity: 1;" transform=" translate(-954.644, -3754.4995)" d="M 305 6237 c -157 -53 -265 -177 -296 -342 c -18 -97 -6 -1743 14 -1910 c 92 -771 327 -1418 736 -2030 c 153 -227 428 -562 509 -619 c 248 -172 584 -31 635 267 c 23 134 -18 244 -139 377 c -448 493 -745 1082 -868 1725 c -58 301 -59 326 -65 1320 l -6 920 l -32 67 c -41 88 -113 160 -201 201 c -57 27 -80 32 -157 34 c -55 2 -105 -2 -130 -10 z" stroke-linecap="round"/>
</g>
<g transform="matrix(0.0648 0 0 -0.0648 563.595 783.7176)" id="517990">
<path style="stroke: none; stroke-width: 1; stroke-dasharray: none; stroke-linecap: butt; stroke-dashoffset: 0; stroke-linejoin: miter; stroke-miterlimit: 4; is-custom-font: none; font-file-url: none; fill: rgb(239,62,54,.5); fill-rule: nonzero; opacity: 1;" transform=" translate(-8695.1193, -1249.2151)" d="M 7552 2480 c -157 -41 -234 -101 -400 -309 c -548 -688 -1340 -1154 -2198 -1295 c -231 -38 -407 -49 -662 -43 c -315 7 -583 45 -838 118 c -237 68 -384 42 -509 -92 c -148 -158 -146 -403 4 -562 c 63 -67 123 -97 281 -142 c 705 -200 1505 -207 2235 -20 c 826 211 1577 666 2157 1303 l 85 94 l 229 -229 c 381 -382 707 -620 1159 -846 c 457 -228 927 -368 1460 -433 c 178 -21 611 -30 805 -15 c 582 44 1113 189 1625 443 c 269 134 559 317 735 464 c 222 187 305 263 455 415 c 198 203 313 341 352 425 c 25 53 28 70 28 169 c 0 105 -2 114 -33 177 c -81 165 -258 256 -439 228 c -114 -18 -194 -69 -284 -178 c -467 -567 -1069 -969 -1752 -1171 c -155 -45 -374 -92 -547 -117 c -177 -24 -617 -30 -808 -10 c -709 75 -1328 332 -1892 785 c -136 109 -390 365 -513 517 c -58 72 -133 156 -166 187 c -67 61 -173 118 -266 142 c -81 20 -213 18 -303 -5 z" stroke-linecap="round"/>
</g>
</svg>